<?xml version="1.0" standalone="no"?>
<!--
  Licensed to the Apache Software Foundation (ASF) under one or more
  contributor license agreements.  See the NOTICE file distributed with
  this work for additional information regarding copyright ownership.
  The ASF licenses this file to You under the Apache License, Version 2.0
  (the "License"); you may not use this file except in compliance with
  the License.  You may obtain a copy of the License at

      http://www.apache.org/licenses/LICENSE-2.0

  Unless required by applicable law or agreed to in writing, software
  distributed under the License is distributed on an "AS IS" BASIS,
  WITHOUT WARRANTIES OR CONDITIONS OF ANY KIND, either express or implied.
  See the License for the specific language governing permissions and
  limitations under the License.
-->
<!DOCTYPE svg PUBLIC "-//W3C//DTD SVG 1.1//EN" "http://www.w3.org/Graphics/SVG/1.1/DTD/svg11.dtd">
<svg xmlns="http://www.w3.org/2000/svg" version="1.1" width="550px" height="150px" viewBox="0 0 550 150">
  <defs>
    <style type="text/css"><![CDATA[
      path.frame {
        stroke: rgb(192, 192, 192);
        stroke-width: 2;
        stroke-linecap: round;
        fill: none;
      }
      path.a, path.c, path.u, path.m, path.l, path.o {
        stroke: #000000;
        stroke-width: 6;
        stroke-linecap: round;
        fill: none;
      }
      text {
        font: 16px sans-serif;
        stroke: rgb(96, 96, 96);
        fill: rgb(96, 96, 96);
      }
    ]]></style>
  </defs>

  <g transform="scale(1.0)">
  <path d="M   8  42 h  30 a 4,4 0 0,0  4,-4 v -30" class="frame" />
  <path d="M   8  58 h  30 a 4,4 0 0,1  4, 4 v  26 a 4,4 0 0,1 -4, 4 h -30" class="frame" />
  <path d="M   8 108 h  30 a 4,4 0 0,1  4, 4 v  30" class="frame" />

  <path d="M  58   8 v  30 a 4,4 0 0,0  4, 4 h  26 a 4,4 0 0,0  4,-4 v -30" class="frame" />
  <path d="M 108   8 v  30 a 4,4 0 0,0  4, 4 h  26 a 4,4 0 0,0  4,-4 v -30" class="frame" />
  <path d="M 158   8 v  30 a 4,4 0 0,0  4, 4 h  26 a 4,4 0 0,0  4,-4 v -30" class="frame" />
  <path d="M 208   8 v  30 a 4,4 0 0,0  4, 4 h  26 a 4,4 0 0,0  4,-4 v -30" class="frame" />
  <path d="M 258   8 v  30 a 4,4 0 0,0  4, 4 h  26 a 4,4 0 0,0  4,-4 v -30" class="frame" />
  <path d="M 308   8 v  30 a 4,4 0 0,0  4, 4 h  26 a 4,4 0 0,0  4,-4 v -30" class="frame" />
  <path d="M 358   8 v  30 a 4,4 0 0,0  4, 4 h  26 a 4,4 0 0,0  4,-4 v -30" class="frame" />
  <path d="M 408   8 v  30 a 4,4 0 0,0  4, 4 h  26 a 4,4 0 0,0  4,-4 v -30" class="frame" />
  <path d="M 458   8 v  30 a 4,4 0 0,0  4, 4 h  26 a 4,4 0 0,0  4,-4 v -30" class="frame" />

  <path d="M  58 142 v -30 a 4,4 0 0,1  4,-4 h  26 a 4,4 0 0,1  4, 4 v  30" class="frame" />
  <path d="M 108 142 v -30 a 4,4 0 0,1  4,-4 h  26 a 4,4 0 0,1  4, 4 v  30" class="frame" />
  <path d="M 158 142 v -30 a 4,4 0 0,1  4,-4 h  26 a 4,4 0 0,1  4, 4 v  30" class="frame" />
  <path d="M 208 142 v -30 a 4,4 0 0,1  4,-4 h  26 a 4,4 0 0,1  4, 4 v  30" class="frame" />
  <path d="M 258 142 v -30 a 4,4 0 0,1  4,-4 h  26 a 4,4 0 0,1  4, 4 v  30" class="frame" />
  <path d="M 308 142 v -30 a 4,4 0 0,1  4,-4 h  26 a 4,4 0 0,1  4, 4 v  30" class="frame" />
  <path d="M 358 142 v -30 a 4,4 0 0,1  4,-4 h  26 a 4,4 0 0,1  4, 4 v  30" class="frame" />
  <path d="M 408 142 v -30 a 4,4 0 0,1  4,-4 h  26 a 4,4 0 0,1  4, 4 v  30" class="frame" />
  <path d="M 458 142 v -30 a 4,4 0 0,1  4,-4 h  26 a 4,4 0 0,1  4, 4 v  30" class="frame" />

  <path d="M 542  42 h -30 a 4,4 0 0,1 -4,-4 v -30" class="frame" />
  <path d="M 542  58 h -30 a 4,4 0 0,0 -4, 4 v  26 a 4,4 0 0,0  4, 4 h  30" class="frame" />
  <path d="M 542 108 h -30 a 4,4 0 0,0 -4, 4 v  30" class="frame" />

  <path d="M 58 66 a 8,8 0 0,1 8,-8 h 18 a 8,8 0 0,1 8,8 v 18 a 8,8 0 0,1 -8,8 h -18 a 8,8 0 0,1 -8,-8 v -1 a 8,8 0 0,1 8,-8 h 26" class="a" />
  <path d="M 142 58 h -26 a 8,8 0 0,0 -8,8 v 18 a 8,8 0 0,0 8,8 h 26" class="c" />
  <path d="M 192 58 h -26 a 8,8 0 0,0 -8,8 v 18 a 8,8 0 0,0 8,8 h 26" class="c" />
  <path d="M 208 58 v 26 a 8,8 0 0,0 8,8 h 18 a 8,8 0 0,0 8,-8 v -26" class="u" />
  <path d="M 258 92 v -26 a 8,8 0 0,1 8,-8 h 26 a 8,8 0 0,1 8,8 v 26" class="m" />
  <path d="M 300 92 v -26 a 8,8 0 0,1 8,-8 h 26 a 8,8 0 0,1 8,8 v 26" class="m" />
  <path d="M 358 58 v 26 a 8,8 0 0,0 8,8 h 18 a 8,8 0 0,0 8,-8 v -26" class="u" />
  <path d="M 408 58 v 26 a 8,8 0 0,0 8,8 h 26" class="l" />
  <path d="M 458 66 a 8,8 0 0,1 8,-8 h 18 a 8,8 0 0,1 8,8 v 18 a 8,8 0 0,1 -8,8 h -18 a 8,8 0 0,1 -8,-8 Z" class="a" />

  <text x="516" y="29">TM</text>
  </g>
</svg>
